<svg version="1.2" xmlns="http://www.w3.org/2000/svg" viewBox="0 0 1920 480" width="1920" height="480">
	<title>banner-svg</title>
	<defs>
		<clipPath clipPathUnits="userSpaceOnUse" id="cp1">
			<path d="m0 0h1920v480h-1920z"/>
		</clipPath>
		<clipPath clipPathUnits="userSpaceOnUse" id="cp2">
			<path d="m0 0h1920v480h-1920z"/>
		</clipPath>
		<clipPath clipPathUnits="userSpaceOnUse" id="cp3">
			<path d="m0 0h1920v480h-1920z"/>
		</clipPath>
		<clipPath clipPathUnits="userSpaceOnUse" id="cp4">
			<path d="m0 0h1920v480h-1920z"/>
		</clipPath>
		<clipPath clipPathUnits="userSpaceOnUse" id="cp5">
			<path d="m0 0h1920v480h-1920z"/>
		</clipPath>
		<clipPath clipPathUnits="userSpaceOnUse" id="cp6">
			<path d="m0 0h1920v480h-1920z"/>
		</clipPath>
		<clipPath clipPathUnits="userSpaceOnUse" id="cp7">
			<path d="m0 0h1920v480h-1920z"/>
		</clipPath>
		<clipPath clipPathUnits="userSpaceOnUse" id="cp8">
			<path d="m0 0h1920v480h-1920z"/>
		</clipPath>
		<clipPath clipPathUnits="userSpaceOnUse" id="cp9">
			<path d="m0 0h1920v480h-1920z"/>
		</clipPath>
		<clipPath clipPathUnits="userSpaceOnUse" id="cp10">
			<path d="m0 0h1920v480h-1920z"/>
		</clipPath>
	</defs>
	<style>
		.s0 { fill: #0f192c } 
		.s1 { fill: #1a7a7c } 
		.s2 { fill: #e8c842 } 
		.s3 { fill: #ffffff } 
		.s4 { fill: #293f7c } 
		.s5 { fill: #9a71ad } 
	</style>
	<g id="BACKGROUND">
		<path id="Layer" class="s0" d="m0 0h1920v480h-1920z"/>
	</g>
	<g id="OBJECTS">
		<g id="Clip-Path" clip-path="url(#cp1)">
			<path id="Layer" class="s1" d="m1641.7 277.9h374.5v387.4h-374.5z"/>
		</g>
		<g id="Clip-Path" clip-path="url(#cp2)">
			<path id="Layer" class="s2" d="m1643.7 145.9c-72.9 0-132 59.1-132 132 0 72.8 59.1 131.9 132 131.9 72.9 0 132-59.1 132-131.9 0-72.9-59.1-132-132-132zm0 191.8c-33 0-59.8-26.8-59.8-59.8 0-33.1 26.8-59.9 59.8-59.9 33 0 59.8 26.8 59.8 59.9 0 33-26.8 59.8-59.8 59.8z"/>
		</g>
		<g id="Clip-Path" clip-path="url(#cp3)">
			<g id="Layer">
				<g id="Layer">
					<path id="Layer" class="s3" d="m1486.1 351.1l-12.7-13.1-12.8 13.1-14.2-14.5 2.9-2.2 11.3 11.7 12.8-13.1 12.7 13.1 12.8-13.1 12.8 13.1 12.8-13.1 12.8 13.1 12.7-13.1 12.8 13.1 11.4-11.7 2.9 2.2-14.3 14.5-12.8-13.1-12.7 13.1-12.8-13.1-12.8 13.1-12.8-13.1z"/>
				</g>
				<g id="Layer">
					<path id="Layer" class="s3" d="m1486.1 368.5l-12.7-13.1-12.8 13.1-14.2-14.5 2.9-2.2 11.3 11.7 12.8-13.1 12.7 13.1 12.8-13.1 12.8 13.1 12.8-13.1 12.8 13.1 12.7-13.1 12.8 13.1 11.4-11.7 2.9 2.2-14.3 14.5-12.8-13.1-12.7 13.1-12.8-13.1-12.8 13.1-12.8-13.1z"/>
				</g>
			</g>
		</g>
		<g id="Clip-Path" clip-path="url(#cp4)">
			<g id="Layer">
				<path id="Layer" class="s3" d="m1862.4 200c0 2.1 1.7 3.8 3.8 3.8 2.1 0 3.8-1.7 3.8-3.8 0-2-1.7-3.7-3.8-3.7-2.1 0-3.8 1.7-3.8 3.7z"/>
				<path id="Layer" class="s3" d="m1825.2 200c0 2.1 1.7 3.8 3.7 3.8 2.1 0 3.8-1.7 3.8-3.8 0-2-1.7-3.7-3.8-3.7-2 0-3.7 1.7-3.7 3.7z"/>
				<path id="Layer" class="s3" d="m1787.9 200c0 2.1 1.7 3.8 3.8 3.8 2.1 0 3.8-1.7 3.8-3.8 0-2-1.7-3.7-3.8-3.7-2.1 0-3.8 1.7-3.8 3.7z"/>
				<path id="Layer" class="s3" d="m1750.7 200c0 2.1 1.6 3.8 3.7 3.8 2.1 0 3.8-1.7 3.8-3.8 0-2-1.7-3.7-3.8-3.7-2.1 0-3.7 1.7-3.7 3.7z"/>
				<path id="Layer" class="s3" d="m1713.4 200c0 2.1 1.7 3.8 3.8 3.8 2.1 0 3.8-1.7 3.8-3.8 0-2-1.7-3.7-3.8-3.7-2.1 0-3.8 1.7-3.8 3.7z"/>
				<path id="Layer" class="s3" d="m1862.4 234.6c0 2.1 1.7 3.8 3.8 3.8 2.1 0 3.8-1.7 3.8-3.8 0-2.1-1.7-3.8-3.8-3.8-2.1 0-3.8 1.7-3.8 3.8z"/>
				<path id="Layer" class="s3" d="m1825.2 234.6c0 2.1 1.7 3.8 3.7 3.8 2.1 0 3.8-1.7 3.8-3.8 0-2.1-1.7-3.8-3.8-3.8-2 0-3.7 1.7-3.7 3.8z"/>
				<path id="Layer" class="s3" d="m1787.9 234.6c0 2.1 1.7 3.8 3.8 3.8 2.1 0 3.8-1.7 3.8-3.8 0-2.1-1.7-3.8-3.8-3.8-2.1 0-3.8 1.7-3.8 3.8z"/>
				<path id="Layer" class="s3" d="m1750.7 234.6c0 2.1 1.6 3.8 3.7 3.8 2.1 0 3.8-1.7 3.8-3.8 0-2.1-1.7-3.8-3.8-3.8-2.1 0-3.7 1.7-3.7 3.8z"/>
				<path id="Layer" class="s3" d="m1713.4 234.6c0 2.1 1.7 3.8 3.8 3.8 2.1 0 3.8-1.7 3.8-3.8 0-2.1-1.7-3.8-3.8-3.8-2.1 0-3.8 1.7-3.8 3.8z"/>
				<path id="Layer" class="s3" d="m1862.4 269.2c0 2 1.7 3.7 3.8 3.7 2.1 0 3.8-1.7 3.8-3.7 0-2.1-1.7-3.8-3.8-3.8-2.1 0-3.8 1.7-3.8 3.8z"/>
				<path id="Layer" class="s3" d="m1825.2 269.2c0 2 1.7 3.7 3.7 3.7 2.1 0 3.8-1.7 3.8-3.7 0-2.1-1.7-3.8-3.8-3.8-2 0-3.7 1.7-3.7 3.8z"/>
				<path id="Layer" class="s3" d="m1787.9 269.2c0 2 1.7 3.7 3.8 3.7 2.1 0 3.8-1.7 3.8-3.7 0-2.1-1.7-3.8-3.8-3.8-2.1 0-3.8 1.7-3.8 3.8z"/>
				<path id="Layer" class="s3" d="m1750.7 269.2c0 2 1.6 3.7 3.7 3.7 2.1 0 3.8-1.7 3.8-3.7 0-2.1-1.7-3.8-3.8-3.8-2.1 0-3.7 1.7-3.7 3.8z"/>
				<path id="Layer" class="s3" d="m1713.4 269.2c0 2 1.7 3.7 3.8 3.7 2.1 0 3.8-1.7 3.8-3.7 0-2.1-1.7-3.8-3.8-3.8-2.1 0-3.8 1.7-3.8 3.8z"/>
				<path id="Layer" class="s3" d="m1862.4 303.7c0 2.1 1.7 3.8 3.8 3.8 2.1 0 3.8-1.7 3.8-3.8 0-2.1-1.7-3.8-3.8-3.8-2.1 0-3.8 1.7-3.8 3.8z"/>
				<path id="Layer" class="s3" d="m1825.2 303.7c0 2.1 1.7 3.8 3.7 3.8 2.1 0 3.8-1.7 3.8-3.8 0-2.1-1.7-3.8-3.8-3.8-2 0-3.7 1.7-3.7 3.8z"/>
				<path id="Layer" class="s3" d="m1787.9 303.7c0 2.1 1.7 3.8 3.8 3.8 2.1 0 3.8-1.7 3.8-3.8 0-2.1-1.7-3.8-3.8-3.8-2.1 0-3.8 1.7-3.8 3.8z"/>
				<path id="Layer" class="s3" d="m1750.7 303.7c0 2.1 1.6 3.8 3.7 3.8 2.1 0 3.8-1.7 3.8-3.8 0-2.1-1.7-3.8-3.8-3.8-2.1 0-3.7 1.7-3.7 3.8z"/>
				<path id="Layer" class="s3" d="m1713.4 303.7c0 2.1 1.7 3.8 3.8 3.8 2.1 0 3.8-1.7 3.8-3.8 0-2.1-1.7-3.8-3.8-3.8-2.1 0-3.8 1.7-3.8 3.8z"/>
				<path id="Layer" class="s3" d="m1866.2 342.1c-2.1 0-3.8-1.7-3.8-3.8 0-2.1 1.7-3.8 3.8-3.8 2.1 0 3.8 1.7 3.8 3.8 0 2.1-1.7 3.8-3.8 3.8z"/>
				<path id="Layer" class="s3" d="m1825.2 338.3c0 2.1 1.7 3.8 3.7 3.8 2.1 0 3.8-1.7 3.8-3.8 0-2.1-1.7-3.8-3.8-3.8-2 0-3.7 1.7-3.7 3.8z"/>
				<path id="Layer" class="s3" d="m1791.7 342.1c-2.1 0-3.8-1.7-3.8-3.8 0-2.1 1.7-3.8 3.8-3.8 2.1 0 3.8 1.7 3.8 3.8 0 2.1-1.7 3.8-3.8 3.8z"/>
				<path id="Layer" class="s3" d="m1750.7 338.3c0 2.1 1.6 3.8 3.7 3.8 2.1 0 3.8-1.7 3.8-3.8 0-2.1-1.7-3.8-3.8-3.8-2.1 0-3.7 1.7-3.7 3.8z"/>
				<path id="Layer" class="s3" d="m1713.4 338.3c0 2.1 1.7 3.8 3.8 3.8 2.1 0 3.8-1.7 3.8-3.8 0-2.1-1.7-3.8-3.8-3.8-2.1 0-3.8 1.7-3.8 3.8z"/>
			</g>
		</g>
		<g id="Clip-Path" clip-path="url(#cp5)">
			<path id="Layer" class="s4" d="m-86.9 134.2c0 108.7 88.1 196.8 196.7 196.8 108.7 0 196.8-88.1 196.8-196.8 0-108.6-88.1-196.7-196.8-196.7-108.6 0-196.7 88.1-196.7 196.7z"/>
		</g>
		<g id="Clip-Path" clip-path="url(#cp6)">
			<g id="Layer">
				<g id="Layer">
					<g id="Layer">
						<path id="Layer" class="s3" d="m47.4 55.3c-3.4 24.7 0.2 49.9 10.7 73.2 14.8 32.7 41.5 57.7 75.1 70.4 33.5 12.7 70.1 11.5 102.8-3.3 32.7-14.8 57.7-41.4 70.3-75 26.2-69.3-8.9-147-78.3-173.2l-13 34.6c50.2 19 75.7 75.3 56.7 125.5-9.2 24.4-27.3 43.7-51 54.4-23.7 10.7-50.1 11.6-74.5 2.4-24.3-9.2-43.6-27.3-54.3-51-10.8-23.7-11.6-50.2-2.4-74.5l-34.6-13.1c-3.7 9.7-6.2 19.6-7.5 29.6z"/>
					</g>
				</g>
			</g>
		</g>
		<g id="Clip-Path" clip-path="url(#cp7)">
			<g id="Layer">
				<path id="Layer" class="s1" d="m190 364.5v-268.2h16.5v268.2z"/>
				<path id="Layer" class="s1" d="m149.4 364.5v-268.2h16.4v268.2z"/>
				<path id="Layer" class="s1" d="m108.7 364.5v-268.2h16.4v268.2z"/>
			</g>
		</g>
		<g id="Clip-Path" clip-path="url(#cp8)">
			<g id="Layer">
				<path id="Layer" class="s5" d="m339 368.4h-24.7l17.4-17.4-11.3-11.4-17.5 17.5v-24.7h-16v24.7l-17.5-17.5-11.4 11.4 17.5 17.4h-24.7v16.1h24.7l-17.5 17.5 11.4 11.3 17.5-17.4v24.7h16v-24.7l17.5 17.4 11.3-11.3-17.4-17.5h24.7z"/>
			</g>
		</g>
		<g id="Clip-Path" clip-path="url(#cp9)">
			<path id="Layer" class="s3" d="m501.9 155.6l-7.1-3.4c-6.5-3.1-11.7-8.3-14.8-14.8l-3.4-7.1-3.4 7.1c-3.2 6.5-8.4 11.7-14.9 14.8l-7 3.4 7 3.4c6.5 3.2 11.7 8.4 14.9 14.9l3.4 7.1 3.4-7.1c3.1-6.5 8.3-11.7 14.8-14.9z"/>
		</g>
		<g id="Clip-Path" clip-path="url(#cp10)">
			<path id="Layer" class="s3" d="m563 114.8l-7.1-3.4c-6.4-3.1-11.7-8.4-14.8-14.9l-3.4-7-3.4 7c-3.1 6.5-8.3 11.8-14.8 14.9l-7.1 3.4 7.1 3.4c6.5 3.1 11.7 8.3 14.8 14.8l3.4 7.1 3.4-7.1c3.1-6.5 8.4-11.7 14.8-14.8z"/>
		</g>
	</g>
	<g id="TEXTS">
		<path id="Valentin Guibert" class="s3" aria-label="Valentin Guibert"  d="m603.1 297.4h-1.7l-30.5-77.1h15.3l12.1 33.8 4.2 12.8 4.3-12.8 11.6-33.8h15.1zm44 1.2q-5.1 0-8.4-2.3-3.3-2.2-5-6-1.6-3.7-1.6-8.2 0-2.5 1.3-5.6 1.3-3 4.6-5.7 3.3-2.8 9.3-4.6 6-1.7 15.4-1.7v-2.5q0-4.1-2-6.8-1.9-2.7-7.8-2.7-4.3 0-8.4 1.5-4.1 1.4-6 3.6l-4.4-10.6q3.3-2.3 8.8-4.1 5.6-2 12.3-2 8.2 0 12.7 2.5 4.5 2.5 6.3 7.1 1.8 4.5 1.8 10.6v35.9h-11.8l-0.9-7.8q-5.8 9.4-16.2 9.4zm5.8-10.6q2.5 0 5.3-2 2.9-2 4.5-5.1v-7.8q-0.5-0.1-1.2-0.1-0.6 0-1.4 0-3.1 0-6.4 0.7-3.3 0.6-5.6 2.3-2.3 1.7-2.3 4.8 0 3.9 1.7 5.6 1.8 1.6 5.4 1.6zm51.5 9h-13.4v-83.6h13.4zm36.5 1.5q-9.2 0-14.9-3.9-5.7-3.9-8.2-10.3-2.6-6.4-2.6-14 0-8 2.9-14.6 3-6.7 8.6-10.7 5.8-4.1 14-4.1 12.3 0 17.2 7.2 4.9 7.1 4.9 20.1 0 1.2 0 2.9-0.1 1.8-0.2 3.1h-33q0.3 6.5 3.6 10.1 3.4 3.7 10 3.7 3.4 0 7.3-1.5 4-1.5 5.8-3.6l4.4 10.4q-2.2 1.5-7 3.4-4.7 1.8-12.8 1.8zm-11.4-32.9h19.3q0-5.8-1-8.8-1-3.1-2.8-4.2-1.7-1.2-4-1.2-5.6 0-8.4 4.2-2.8 4.1-3.1 10zm60.4 31.4h-14.1v-54.7h12.8l0.2 7.2q2.2-3.3 6-5.9 3.9-2.7 10.1-2.7 8.4 0 12.5 5.3 4 5.3 4 14.7v36.1h-14v-34.9q0-4.6-2-7.4-1.9-2.9-5.8-2.9-3.9 0-6.8 2.9-2.9 2.8-2.9 7.4zm65.4 1.6q-9.3 0-12.6-4.8-3.2-4.9-3.2-14.7v-25.4h-7.2v-11.5h7.7l0.8-11.6 12-5.1v16.7h13.5v11.5h-13.5v25.1q0 4.8 1.3 6.7 1.4 1.8 3.7 1.8 2.5 0 5.2-1.3 2.7-1.2 4.2-2.6l2.6 11.1q-1.7 1.3-4.4 2.2-2.7 0.9-5.5 1.4-2.8 0.5-4.6 0.5zm39.7-65.3h-15.4v-14.7h15.4zm-0.5 63.7h-14.3v-54.7h14.3zm30.4 0h-14v-54.8h12.7l0.3 7.2q2.2-3.3 6-5.9 3.8-2.6 10.1-2.6 8.4 0 12.4 5.2 4.1 5.3 4.1 14.7v36.2h-14.1v-35q0-4.6-1.9-7.4-1.9-2.9-5.9-2.9-3.8 0-6.7 2.9-3 2.8-3 7.4zm96.4 2q-9.7 0-16.9-4.9-7.2-4.8-11.2-14-4-9.2-4-22.2 0-11.4 4.3-20.1 4.4-8.8 12-13.8 7.7-5 17.7-5 7.2 0 11.6 1.1 4.4 1.1 6.8 2.7 2.5 1.6 3.9 3l-6 12.2q-0.9-1.1-2.6-2.5-1.8-1.4-5-2.5-3.3-1-8.5-1-5.6 0-10 3.2-4.4 3.3-6.9 9-2.6 5.8-2.6 13.4 0 13.7 4.9 21.4 4.8 7.6 12.7 7.6 8.6 0 12.1-4 3.6-4.1 3.6-11.7 0-1.3-0.2-3h-15.7v-12.1h28.7q0.3 2.6 0.5 5.5 0.2 2.9 0.2 5.2 0 6.2-1.2 12-1.2 5.9-4.4 10.5-3.2 4.6-9 7.3-5.7 2.7-14.8 2.7zm56.9-0.7q-8.3 0-12.3-5.3-3.9-5.3-3.9-14.6v-36.2h13.8v35q0 4.5 1.6 7.3 1.7 2.9 5.6 2.9 3.9 0 6.5-2.9 2.7-2.8 2.7-7.3v-35h13.7v54.8h-12.4l-0.3-7.1q-2 3.2-5.6 5.8-3.4 2.6-9.4 2.6zm58.9-65h-15.4v-14.6h15.4zm-0.5 63.6h-14.3v-54.7h14.3zm43.7 1.5q-6 0-9.8-3.7-3.7-3.8-5-8.7v10.9h-12.1v-83.6h13.2v28.8l-1.1 9.4q0.9-3.7 3.5-6.1 2.6-2.4 6-3.6 3.3-1.1 6.5-1.1 10.2 0 15.4 7.2 5.3 7.2 5.3 21.4 0 9.8-3 16.3-2.9 6.4-7.9 9.6-5 3.2-11 3.2zm-3.2-10.9q2.7 0 5.1-1.7 2.5-1.9 4-5.9 1.5-4 1.5-10.6 0-9.3-3.1-13.4-3.1-4-7.3-4-5.1 0-7.8 5.3-2.7 5.2-2.7 12.9 0 7.8 2.7 12.6 2.8 4.8 7.6 4.8zm60.1 10.8q-9.2 0-14.9-3.9-5.6-3.9-8.2-10.2-2.6-6.5-2.6-14.1 0-7.9 2.9-14.6 3-6.7 8.7-10.7 5.7-4 13.9-4 12.3 0 17.2 7.1 4.9 7.1 4.9 20.1 0 1.2 0 3-0.1 1.7-0.2 3h-33q0.3 6.5 3.6 10.2 3.4 3.6 10.1 3.6 3.4 0 7.3-1.4 3.9-1.6 5.7-3.7l4.4 10.4q-2.2 1.5-6.9 3.4-4.8 1.8-12.9 1.8zm-11.4-32.9h19.4q0-5.8-1.1-8.8-1-3.1-2.7-4.2-1.8-1.2-4-1.2-5.7 0-8.5 4.2-2.8 4.1-3.1 10zm59.5 31.5h-13.7v-54.8h12.4l0.7 9.7q0.8-2.2 2.6-4.6 1.9-2.4 5.2-4.1 3.3-1.7 8.4-1.7 1.6 0 2.8 0.2 1.2 0.3 2.3 0.7l-3.1 14.4q-1.7-1.7-5.4-1.7-4.2 0-6.9 1.7-2.7 1.7-4 3.9-1.3 2.1-1.3 3.3zm46.9 1.6q-9.3 0-12.6-4.8-3.3-4.9-3.3-14.7v-25.4h-7.1v-11.5h7.7l0.8-11.6 11.9-5.1v16.7h13.6v11.5h-13.6v25.1q0 4.8 1.4 6.7 1.3 1.8 3.7 1.8 2.4 0 5.1-1.3 2.7-1.2 4.2-2.6l2.7 11.1q-1.7 1.3-4.5 2.2-2.7 0.9-5.5 1.4-2.7 0.5-4.5 0.5z"/>
	</g>
</svg>