<?xml version="1.0" encoding="utf-8"?>
<!-- Generator: Adobe Illustrator 27.5.0, SVG Export Plug-In . SVG Version: 6.00 Build 0)  -->
<svg version="1.1" xmlns="http://www.w3.org/2000/svg" xmlns:xlink="http://www.w3.org/1999/xlink" x="0px" y="0px"
	 viewBox="0 0 1920 480" style="enable-background:new 0 0 1920 480;" xml:space="preserve">
<style type="text/css">
	<![CDATA[
		@import url('https://fonts.googleapis.com/css2?family=Freeman&display=swap');
	]]>
</style>
<g id="BACKGROUND">
	<rect style="fill:#0F192C;" width="1920" height="480"/>
</g>
<g id="OBJECTS">
	<defs>
		<rect id="SVGID_1_" width="1920" height="480"/>
	</defs>
	<clipPath id="SVGID_00000125570167963559151640000005073463294227052704_">
		<use xlink:href="#SVGID_1_"  style="overflow:visible;"/>
	</clipPath>
	
		<rect x="1641.685" y="277.863" style="clip-path:url(#SVGID_00000125570167963559151640000005073463294227052704_);fill:#1A7A7C;" width="374.528" height="387.459"/>
	<path style="clip-path:url(#SVGID_00000125570167963559151640000005073463294227052704_);fill:#E8C842;" d="M1643.684,145.895
		c-72.883,0-131.969,59.083-131.969,131.969c0,72.885,59.086,131.971,131.969,131.971c72.885,0,131.971-59.086,131.971-131.971
		C1775.654,204.978,1716.568,145.895,1643.684,145.895z M1643.684,337.678c-33.032,0-59.817-26.78-59.817-59.814
		c0-33.037,26.785-59.818,59.817-59.818c33.034,0,59.818,26.781,59.818,59.818C1703.502,310.897,1676.718,337.678,1643.684,337.678z
		"/>
	<g style="clip-path:url(#SVGID_00000125570167963559151640000005073463294227052704_);">
		<g>
			<polygon style="fill:#FFFFFF;" points="1486.146,351.148 1473.366,338.045 1460.587,351.148 1446.354,336.555 1449.26,334.445 
				1460.587,346.06 1473.366,332.956 1486.146,346.06 1498.921,332.956 1511.698,346.06 1524.478,332.956 1537.264,346.06 
				1550.043,332.956 1562.833,346.06 1574.169,334.445 1577.073,336.555 1562.833,351.147 1550.043,338.043 1537.264,351.147 
				1524.478,338.043 1511.698,351.148 1498.921,338.045 			"/>
		</g>
		<g>
			<polygon style="fill:#FFFFFF;" points="1486.146,368.548 1473.366,355.444 1460.587,368.548 1446.354,353.955 1449.26,351.846 
				1460.587,363.459 1473.366,350.355 1486.146,363.459 1498.921,350.355 1511.698,363.459 1524.478,350.355 1537.264,363.461 
				1550.043,350.357 1562.833,363.461 1574.169,351.844 1577.073,353.955 1562.833,368.548 1550.043,355.444 1537.264,368.548 
				1524.478,355.444 1511.698,368.548 1498.921,355.444 			"/>
		</g>
	</g>
	<g style="clip-path:url(#SVGID_00000125570167963559151640000005073463294227052704_);">
		<path style="fill:#FFFFFF;" d="M1862.426,200.047c0,2.086,1.693,3.779,3.779,3.779c2.088,0,3.779-1.693,3.779-3.779
			c0-2.088-1.691-3.781-3.779-3.781C1864.119,196.266,1862.426,197.959,1862.426,200.047z"/>
		<path style="fill:#FFFFFF;" d="M1825.169,200.047c0,2.086,1.693,3.779,3.779,3.779c2.09,0,3.781-1.693,3.781-3.779
			c0-2.088-1.691-3.781-3.781-3.781C1826.862,196.266,1825.169,197.959,1825.169,200.047z"/>
		<path style="fill:#FFFFFF;" d="M1787.914,200.047c0,2.086,1.691,3.779,3.779,3.779c2.086,0,3.779-1.693,3.779-3.779
			c0-2.088-1.693-3.781-3.779-3.781C1789.605,196.266,1787.914,197.959,1787.914,200.047z"/>
		<path style="fill:#FFFFFF;" d="M1750.656,200.047c0,2.086,1.691,3.779,3.779,3.779s3.779-1.693,3.779-3.779
			c0-2.088-1.691-3.781-3.779-3.781S1750.656,197.959,1750.656,200.047z"/>
		<path style="fill:#FFFFFF;" d="M1713.399,200.047c0,2.086,1.691,3.779,3.779,3.779s3.781-1.693,3.781-3.779
			c0-2.088-1.693-3.781-3.781-3.781S1713.399,197.959,1713.399,200.047z"/>
		<path style="fill:#FFFFFF;" d="M1862.426,234.604c0,2.086,1.693,3.779,3.779,3.779c2.088,0,3.779-1.693,3.779-3.779
			c0-2.088-1.691-3.781-3.779-3.781C1864.119,230.823,1862.426,232.516,1862.426,234.604z"/>
		<path style="fill:#FFFFFF;" d="M1825.169,234.604c0,2.086,1.693,3.779,3.779,3.779c2.09,0,3.781-1.693,3.781-3.779
			c0-2.088-1.691-3.781-3.781-3.781C1826.862,230.823,1825.169,232.516,1825.169,234.604z"/>
		<path style="fill:#FFFFFF;" d="M1787.914,234.604c0,2.086,1.691,3.779,3.779,3.779c2.086,0,3.779-1.693,3.779-3.779
			c0-2.088-1.693-3.781-3.779-3.781C1789.605,230.823,1787.914,232.516,1787.914,234.604z"/>
		<path style="fill:#FFFFFF;" d="M1750.656,234.604c0,2.086,1.691,3.779,3.779,3.779s3.779-1.693,3.779-3.779
			c0-2.088-1.691-3.781-3.779-3.781S1750.656,232.516,1750.656,234.604z"/>
		<path style="fill:#FFFFFF;" d="M1713.399,234.604c0,2.086,1.691,3.779,3.779,3.779s3.781-1.693,3.781-3.779
			c0-2.088-1.693-3.781-3.781-3.781S1713.399,232.516,1713.399,234.604z"/>
		<path style="fill:#FFFFFF;" d="M1862.426,269.161c0,2.086,1.693,3.779,3.779,3.779c2.088,0,3.779-1.693,3.779-3.779
			c0-2.088-1.691-3.781-3.779-3.781C1864.119,265.38,1862.426,267.073,1862.426,269.161z"/>
		<path style="fill:#FFFFFF;" d="M1825.169,269.161c0,2.086,1.693,3.779,3.779,3.779c2.09,0,3.781-1.693,3.781-3.779
			c0-2.088-1.691-3.781-3.781-3.781C1826.862,265.38,1825.169,267.073,1825.169,269.161z"/>
		<path style="fill:#FFFFFF;" d="M1787.914,269.161c0,2.086,1.691,3.779,3.779,3.779c2.086,0,3.779-1.693,3.779-3.779
			c0-2.088-1.693-3.781-3.779-3.781C1789.605,265.38,1787.914,267.073,1787.914,269.161z"/>
		<path style="fill:#FFFFFF;" d="M1750.656,269.161c0,2.086,1.691,3.779,3.779,3.779s3.779-1.693,3.779-3.779
			c0-2.088-1.691-3.781-3.779-3.781S1750.656,267.073,1750.656,269.161z"/>
		<path style="fill:#FFFFFF;" d="M1713.399,269.161c0,2.086,1.691,3.779,3.779,3.779s3.781-1.693,3.781-3.779
			c0-2.088-1.693-3.781-3.781-3.781S1713.399,267.073,1713.399,269.161z"/>
		<path style="fill:#FFFFFF;" d="M1862.426,303.716c0,2.088,1.693,3.781,3.779,3.781c2.088,0,3.779-1.693,3.779-3.781
			c0-2.086-1.691-3.779-3.779-3.779C1864.119,299.936,1862.426,301.63,1862.426,303.716z"/>
		<path style="fill:#FFFFFF;" d="M1825.169,303.716c0,2.088,1.693,3.781,3.779,3.781c2.09,0,3.781-1.693,3.781-3.781
			c0-2.086-1.691-3.779-3.781-3.779C1826.862,299.936,1825.169,301.63,1825.169,303.716z"/>
		<path style="fill:#FFFFFF;" d="M1787.914,303.716c0,2.088,1.691,3.781,3.779,3.781c2.086,0,3.779-1.693,3.779-3.781
			c0-2.086-1.693-3.779-3.779-3.779C1789.605,299.936,1787.914,301.63,1787.914,303.716z"/>
		<path style="fill:#FFFFFF;" d="M1750.656,303.716c0,2.088,1.691,3.781,3.779,3.781s3.779-1.693,3.779-3.781
			c0-2.086-1.691-3.779-3.779-3.779S1750.656,301.63,1750.656,303.716z"/>
		<path style="fill:#FFFFFF;" d="M1713.399,303.716c0,2.088,1.691,3.781,3.779,3.781s3.781-1.693,3.781-3.781
			c0-2.086-1.693-3.779-3.781-3.779S1713.399,301.63,1713.399,303.716z"/>
		<circle style="fill:#FFFFFF;" cx="1866.205" cy="338.273" r="3.779"/>
		<path style="fill:#FFFFFF;" d="M1825.169,338.273c0,2.088,1.693,3.779,3.779,3.779c2.09,0,3.781-1.691,3.781-3.779
			c0-2.088-1.691-3.779-3.781-3.779C1826.862,334.494,1825.169,336.185,1825.169,338.273z"/>
		<circle style="fill:#FFFFFF;" cx="1791.693" cy="338.273" r="3.779"/>
		<path style="fill:#FFFFFF;" d="M1750.656,338.273c0,2.088,1.691,3.779,3.779,3.779s3.779-1.691,3.779-3.779
			c0-2.088-1.691-3.779-3.779-3.779S1750.656,336.185,1750.656,338.273z"/>
		<path style="fill:#FFFFFF;" d="M1713.399,338.273c0,2.088,1.691,3.779,3.779,3.779s3.781-1.691,3.781-3.779
			c0-2.088-1.693-3.779-3.781-3.779S1713.399,336.185,1713.399,338.273z"/>
	</g>
	<path style="clip-path:url(#SVGID_00000125570167963559151640000005073463294227052704_);fill:#293F7C;" d="M-86.91,134.218
		c0,108.658,88.086,196.744,196.742,196.744c108.657,0,196.739-88.086,196.739-196.744c0-108.654-88.083-196.737-196.739-196.737
		C1.176-62.52-86.91,25.564-86.91,134.218z"/>
	<g style="clip-path:url(#SVGID_00000125570167963559151640000005073463294227052704_);">
		<g>
			<g>
				<path style="fill:#FFFFFF;" d="M47.351,55.328c-3.357,24.711,0.267,49.918,10.797,73.205
					c14.79,32.709,41.431,57.7,75.018,70.366c33.582,12.671,70.091,11.505,102.798-3.288c32.708-14.786,57.698-41.431,70.371-75.012
					c26.157-69.322-8.974-147.015-78.307-173.171L214.97-17.955c50.246,18.956,75.689,75.251,56.749,125.493
					c-9.183,24.341-27.294,43.646-50.995,54.365c-23.704,10.715-50.163,11.563-74.5,2.38c-24.341-9.179-43.646-27.294-54.365-50.996
					c-10.716-23.703-11.558-50.159-2.382-74.501L54.862,25.731C51.211,35.404,48.711,45.328,47.351,55.328z"/>
			</g>
		</g>
	</g>
	<g style="clip-path:url(#SVGID_00000125570167963559151640000005073463294227052704_);">
		
			<rect x="64.183" y="222.194" transform="matrix(6.123234e-17 -1 1 6.123234e-17 -32.157 428.6511)" style="fill:#1A7A7C;" width="268.128" height="16.421"/>
		
			<rect x="23.528" y="222.195" transform="matrix(6.123234e-17 -1 1 6.123234e-17 -72.8122 387.9958)" style="fill:#1A7A7C;" width="268.128" height="16.419"/>
		
			<rect x="-17.125" y="222.194" transform="matrix(6.123234e-17 -1 1 6.123234e-17 -113.4656 347.3425)" style="fill:#1A7A7C;" width="268.128" height="16.42"/>
	</g>
	<g style="clip-path:url(#SVGID_00000125570167963559151640000005073463294227052704_);">
		<polygon style="fill:#9A71AD;" points="338.982,368.438 314.28,368.438 331.747,350.971 320.391,339.614 302.924,357.082 
			302.924,332.379 286.863,332.379 286.863,357.082 269.397,339.614 258.04,350.971 275.508,368.438 250.805,368.438 
			250.805,384.498 275.508,384.498 258.04,401.965 269.397,413.321 286.863,395.853 286.863,420.557 302.924,420.557 
			302.924,395.853 320.391,413.321 331.747,401.965 314.28,384.498 338.982,384.498 		"/>
	</g>
	<path style="clip-path:url(#SVGID_00000125570167963559151640000005073463294227052704_);fill:#FFFFFF;" d="M501.881,155.646
		l-7.072-3.409c-6.482-3.119-11.709-8.349-14.831-14.833l-3.405-7.074l-3.407,7.074c-3.12,6.483-8.348,11.713-14.83,14.833
		l-7.072,3.409l7.072,3.404c6.482,3.124,11.71,8.354,14.83,14.837l3.407,7.069l3.405-7.069c3.122-6.483,8.349-11.713,14.831-14.837
		L501.881,155.646z"/>
	<path style="clip-path:url(#SVGID_00000125570167963559151640000005073463294227052704_);fill:#FFFFFF;" d="M563.014,114.786
		l-7.072-3.405c-6.481-3.123-11.71-8.354-14.831-14.837l-3.405-7.073l-3.407,7.073c-3.12,6.483-8.348,11.714-14.829,14.837
		l-7.072,3.405l7.072,3.409c6.482,3.119,11.71,8.349,14.829,14.828l3.407,7.073l3.405-7.073c3.122-6.479,8.35-11.709,14.831-14.828
		L563.014,114.786z"/>
	
</g>
<g id="TEXTS">
	<text transform="matrix(1 0 0 1 550 280)" style="fill:#FFFFFF; font-family:'Freeman'; font-size:110px;">Valentin Guibert</text>
</g>
</svg>
